{"accessors" : [{"bufferView" : 0, "byteOffset" : 0, "componentType" : 5123, "count" : 6336, "type" : "SCALAR", "max" : [5072], "min" : [0]}, {"bufferView" : 1, "byteOffset" : 0, "componentType" : 5126, "count" : 5073, "type" : "VEC3", "max" : [0.0934922993183136, 0.2726159989833832, 0.13572600483894348], "min" : [-0.0934922993183136, -0.00040008299401961267, -0.09815599769353867], "name" : "POSITION"}, {"bufferView" : 1, "byteOffset" : 12, "componentType" : 5126, "count" : 5073, "type" : "VEC2", "max" : [0.5858110189437866, -0.009999999776482582], "min" : [0.009999999776482582, -0.6706460118293762], "name" : "TEXCOORD_0"}, {"bufferView" : 1, "byteOffset" : 20, "componentType" : 5126, "count" : 5073, "type" : "VEC3", "max" : [0.9998849630355835, 0.9993755221366882, 0.9996455907821655], "min" : [-0.9998849630355835, -0.9999927282333374, -0.9998573064804077], "name" : "NORMAL"}], "asset" : {"generator" : "Aspose.3D 23.4.0", "version" : "2.0"}, "buffers" : [{"uri" : "data:application/octet-stream;base64,", "byteLength" : 215432}], "bufferViews" : [{"buffer" : 0, "byteOffset" : 0, "byteLength" : 12672, "target" : 34963}, {"buffer" : 0, "byteOffset" : 12676, "byteLength" : 202752, "byteStride" : 32, "target" : 34962}], "meshes" : [{"primitives" : [{"attributes" : {"POSITION" : 1, "TEXCOORD_0" : 2, "NORMAL" : 3}, "indices" : 0, "mode" : 4}], "name" : ""}], "nodes" : [{"mesh" : 0, "name" : "lowman_shoes"}], "scene" : 0, "scenes" : [{"nodes" : [0]}]}